<mxfile host="Electron" agent="Mozilla/5.0 (X11; Linux x86_64) AppleWebKit/537.36 (KHTML, like Gecko) draw.io/26.0.16 Chrome/132.0.6834.196 Electron/34.2.0 Safari/537.36" version="26.0.16">
  <diagram id="0d0418cf-194d-6f34-59b4-59e4f961d9f4" name="Page-1">
    <mxGraphModel dx="2873" dy="2271" grid="1" gridSize="10" guides="1" tooltips="1" connect="1" arrows="1" fold="1" page="1" pageScale="1" pageWidth="850" pageHeight="1100" background="#ffffff" math="0" shadow="0">
      <root>
        <mxCell id="0" />
        <mxCell id="1" parent="0" />
        <mxCell id="2F20G_uUJtbaP4h0yDHO-43" value="" style="shape=trapezoid;perimeter=trapezoidPerimeter;whiteSpace=wrap;html=1;fixedSize=1;rotation=90;fillColor=#dae8fc;strokeColor=#000000;strokeWidth=1.9685;" parent="1" vertex="1">
          <mxGeometry x="-550" y="104" width="900" height="120" as="geometry" />
        </mxCell>
        <mxCell id="vOdKWW2uF6KcDU7mGMfG-1" value="Wishbone&lt;br&gt;Arbiter" style="rounded=0;whiteSpace=wrap;html=1;fontSize=20;fontStyle=1;fillColor=#dae8fc;strokeColor=#000000;" parent="1" vertex="1">
          <mxGeometry y="38" width="250" height="80" as="geometry" />
        </mxCell>
        <mxCell id="PTtlULXs9aAdY1gIThPs-2" value="&lt;font style=&quot;font-size: 20px;&quot;&gt;VS_0&amp;nbsp;&lt;/font&gt;" style="rounded=1;whiteSpace=wrap;html=1;strokeColor=#000000;fillColor=#dae8fc;align=right;verticalAlign=bottom;" parent="1" vertex="1">
          <mxGeometry x="-20" y="260" width="160" height="120" as="geometry" />
        </mxCell>
        <mxCell id="FLBWLRREEo4RobXQaIjN-500" value="" style="rounded=1;whiteSpace=wrap;html=1;fontSize=20;fillColor=#DAE8FC;" parent="1" vertex="1">
          <mxGeometry x="-371" y="-130" width="170" height="90" as="geometry" />
        </mxCell>
        <mxCell id="FLBWLRREEo4RobXQaIjN-583" value="" style="endArrow=classic;html=1;rounded=0;fontSize=20;" parent="1" source="FLBWLRREEo4RobXQaIjN-495" target="FLBWLRREEo4RobXQaIjN-580" edge="1">
          <mxGeometry width="50" height="50" relative="1" as="geometry">
            <mxPoint x="-280" y="-80" as="sourcePoint" />
            <mxPoint x="-230" y="-90" as="targetPoint" />
          </mxGeometry>
        </mxCell>
        <mxCell id="FLBWLRREEo4RobXQaIjN-495" value="YM2149" style="rounded=1;whiteSpace=wrap;html=1;fontSize=20;fillColor=#DAE8FC;" parent="1" vertex="1">
          <mxGeometry x="-346" y="-110" width="130" height="60" as="geometry" />
        </mxCell>
        <mxCell id="FLBWLRREEo4RobXQaIjN-571" value="" style="rounded=1;whiteSpace=wrap;html=1;fontSize=20;fillColor=#dae8fc;strokeColor=#000000;" parent="1" vertex="1">
          <mxGeometry x="-0.2" y="-182" width="250.2" height="100" as="geometry" />
        </mxCell>
        <mxCell id="FLBWLRREEo4RobXQaIjN-517" value="USB HID" style="rounded=1;whiteSpace=wrap;html=1;fontSize=20;fillColor=#dae8fc;strokeColor=#000000;" parent="1" vertex="1">
          <mxGeometry x="-311" y="290" width="111" height="50" as="geometry" />
        </mxCell>
        <mxCell id="FLBWLRREEo4RobXQaIjN-560" value="" style="rounded=0;whiteSpace=wrap;html=1;fontSize=20;fillColor=#000000;strokeColor=#000000;" parent="1" vertex="1">
          <mxGeometry x="-211" y="315" width="10" height="10" as="geometry" />
        </mxCell>
        <mxCell id="FLBWLRREEo4RobXQaIjN-397" value="wbxbar Wishbone&lt;br&gt;Crossbar" style="rounded=0;whiteSpace=wrap;html=1;fontSize=20;fontStyle=1;fillColor=#DAE8FC;" parent="1" vertex="1">
          <mxGeometry x="-0.2" y="160" width="800.2" height="80" as="geometry" />
        </mxCell>
        <mxCell id="FLBWLRREEo4RobXQaIjN-401" value="riscv-dbg&lt;br style=&quot;font-size: 20px;&quot;&gt;JTAG DTM&lt;br style=&quot;font-size: 20px;&quot;&gt;" style="rounded=1;whiteSpace=wrap;html=1;fontSize=20;fillColor=#DAE8FC;strokeColor=default;" parent="1" vertex="1">
          <mxGeometry x="-0.2" y="-62" width="140.2" height="80" as="geometry" />
        </mxCell>
        <mxCell id="FLBWLRREEo4RobXQaIjN-402" value="LiteDRAM MEMC" style="rounded=1;whiteSpace=wrap;html=1;fontSize=20;fillColor=#DAE8FC;strokeColor=default;" parent="1" vertex="1">
          <mxGeometry x="159.8" y="280" width="120" height="80" as="geometry" />
        </mxCell>
        <mxCell id="FLBWLRREEo4RobXQaIjN-403" value="PicoRV&lt;br&gt;DMA" style="rounded=1;whiteSpace=wrap;html=1;fontSize=20;fillColor=#DAE8FC;" parent="1" vertex="1">
          <mxGeometry x="280" y="40" width="120" height="80" as="geometry" />
        </mxCell>
        <mxCell id="FLBWLRREEo4RobXQaIjN-404" value="VERA Graphics&lt;br&gt;128KB VRAM&lt;br&gt;" style="rounded=1;whiteSpace=wrap;html=1;fontSize=20;fillColor=#dae8fc;strokeColor=#000000;" parent="1" vertex="1">
          <mxGeometry x="424.8" width="120" height="120" as="geometry" />
        </mxCell>
        <mxCell id="FLBWLRREEo4RobXQaIjN-405" value="vs0" style="rounded=1;whiteSpace=wrap;html=1;fontSize=20;fillColor=#dae8fc;strokeColor=#000000;" parent="1" vertex="1">
          <mxGeometry x="-0.2" y="280" width="120" height="70" as="geometry" />
        </mxCell>
        <mxCell id="FLBWLRREEo4RobXQaIjN-432" value="" style="rounded=0;whiteSpace=wrap;html=1;fontSize=20;fillColor=#000000;" parent="1" vertex="1">
          <mxGeometry x="64.9" y="8" width="10" height="10" as="geometry" />
        </mxCell>
        <mxCell id="FLBWLRREEo4RobXQaIjN-434" value="" style="endArrow=classic;html=1;rounded=0;fontSize=20;edgeStyle=orthogonalEdgeStyle;entryX=0.5;entryY=0;entryDx=0;entryDy=0;" parent="1" source="FLBWLRREEo4RobXQaIjN-432" target="vOdKWW2uF6KcDU7mGMfG-5" edge="1">
          <mxGeometry width="50" height="50" relative="1" as="geometry">
            <mxPoint x="-290.2" y="398" as="sourcePoint" />
            <mxPoint x="-240.2" y="348" as="targetPoint" />
          </mxGeometry>
        </mxCell>
        <mxCell id="FLBWLRREEo4RobXQaIjN-444" value="" style="rounded=0;whiteSpace=wrap;html=1;fontSize=20;fillColor=#000000;" parent="1" vertex="1">
          <mxGeometry x="479.8" y="160" width="10" height="10" as="geometry" />
        </mxCell>
        <mxCell id="FLBWLRREEo4RobXQaIjN-445" value="" style="rounded=0;whiteSpace=wrap;html=1;fontSize=20;fillColor=#000000;" parent="1" vertex="1">
          <mxGeometry x="479.8" y="110" width="10" height="10" as="geometry" />
        </mxCell>
        <mxCell id="FLBWLRREEo4RobXQaIjN-446" value="" style="endArrow=classic;html=1;rounded=0;fontSize=20;" parent="1" source="FLBWLRREEo4RobXQaIjN-444" target="FLBWLRREEo4RobXQaIjN-445" edge="1">
          <mxGeometry width="50" height="50" relative="1" as="geometry">
            <mxPoint x="234.8" y="370" as="sourcePoint" />
            <mxPoint x="284.8" y="320" as="targetPoint" />
          </mxGeometry>
        </mxCell>
        <mxCell id="FLBWLRREEo4RobXQaIjN-448" value="" style="rounded=0;whiteSpace=wrap;html=1;fontSize=20;fillColor=#000000;" parent="1" vertex="1">
          <mxGeometry x="334.99999999999994" y="110" width="10" height="10" as="geometry" />
        </mxCell>
        <mxCell id="FLBWLRREEo4RobXQaIjN-449" value="" style="rounded=0;whiteSpace=wrap;html=1;fontSize=20;fillColor=#000000;" parent="1" vertex="1">
          <mxGeometry x="334.79999999999995" y="160" width="10" height="10" as="geometry" />
        </mxCell>
        <mxCell id="FLBWLRREEo4RobXQaIjN-450" value="" style="endArrow=classic;html=1;rounded=0;fontSize=20;" parent="1" source="FLBWLRREEo4RobXQaIjN-448" target="FLBWLRREEo4RobXQaIjN-449" edge="1">
          <mxGeometry width="50" height="50" relative="1" as="geometry">
            <mxPoint x="249.8" y="270" as="sourcePoint" />
            <mxPoint x="299.8" y="220" as="targetPoint" />
          </mxGeometry>
        </mxCell>
        <mxCell id="FLBWLRREEo4RobXQaIjN-455" value="" style="rounded=0;whiteSpace=wrap;html=1;fontSize=20;fillColor=#000000;" parent="1" vertex="1">
          <mxGeometry x="35.8" y="280" width="10" height="10" as="geometry" />
        </mxCell>
        <mxCell id="FLBWLRREEo4RobXQaIjN-456" value="" style="rounded=0;whiteSpace=wrap;html=1;fontSize=20;fillColor=#000000;" parent="1" vertex="1">
          <mxGeometry x="35.8" y="230" width="10" height="10" as="geometry" />
        </mxCell>
        <mxCell id="FLBWLRREEo4RobXQaIjN-457" value="" style="endArrow=classic;html=1;rounded=0;fontSize=20;" parent="1" source="FLBWLRREEo4RobXQaIjN-456" target="FLBWLRREEo4RobXQaIjN-455" edge="1">
          <mxGeometry width="50" height="50" relative="1" as="geometry">
            <mxPoint x="139.8" y="280" as="sourcePoint" />
            <mxPoint x="189.8" y="230" as="targetPoint" />
          </mxGeometry>
        </mxCell>
        <mxCell id="FLBWLRREEo4RobXQaIjN-459" value="" style="rounded=0;whiteSpace=wrap;html=1;fontSize=20;fillColor=#000000;" parent="1" vertex="1">
          <mxGeometry x="75.8" y="230" width="10" height="10" as="geometry" />
        </mxCell>
        <mxCell id="FLBWLRREEo4RobXQaIjN-460" value="" style="rounded=0;whiteSpace=wrap;html=1;fontSize=20;fillColor=#000000;" parent="1" vertex="1">
          <mxGeometry x="75.8" y="280" width="10" height="10" as="geometry" />
        </mxCell>
        <mxCell id="FLBWLRREEo4RobXQaIjN-461" value="" style="endArrow=classic;html=1;rounded=0;fontSize=20;" parent="1" source="FLBWLRREEo4RobXQaIjN-460" target="FLBWLRREEo4RobXQaIjN-459" edge="1">
          <mxGeometry width="50" height="50" relative="1" as="geometry">
            <mxPoint x="139.8" y="280" as="sourcePoint" />
            <mxPoint x="189.8" y="230" as="targetPoint" />
          </mxGeometry>
        </mxCell>
        <mxCell id="FLBWLRREEo4RobXQaIjN-462" value="" style="rounded=0;whiteSpace=wrap;html=1;fontSize=20;fillColor=#000000;" parent="1" vertex="1">
          <mxGeometry x="214.8" y="280" width="10" height="10" as="geometry" />
        </mxCell>
        <mxCell id="FLBWLRREEo4RobXQaIjN-463" value="" style="rounded=0;whiteSpace=wrap;html=1;fontSize=20;fillColor=#000000;" parent="1" vertex="1">
          <mxGeometry x="214.8" y="230" width="10" height="10" as="geometry" />
        </mxCell>
        <mxCell id="FLBWLRREEo4RobXQaIjN-464" value="" style="endArrow=classic;html=1;rounded=0;fontSize=20;" parent="1" source="FLBWLRREEo4RobXQaIjN-463" target="FLBWLRREEo4RobXQaIjN-462" edge="1">
          <mxGeometry width="50" height="50" relative="1" as="geometry">
            <mxPoint x="139.8" y="280" as="sourcePoint" />
            <mxPoint x="189.8" y="230" as="targetPoint" />
          </mxGeometry>
        </mxCell>
        <mxCell id="FLBWLRREEo4RobXQaIjN-480" value="" style="rounded=0;whiteSpace=wrap;html=1;fontSize=20;fillColor=#000000;" parent="1" vertex="1">
          <mxGeometry x="-50" y="195" width="10" height="10" as="geometry" />
        </mxCell>
        <mxCell id="FLBWLRREEo4RobXQaIjN-481" value="" style="rounded=0;whiteSpace=wrap;html=1;fontSize=20;fillColor=#000000;" parent="1" vertex="1">
          <mxGeometry x="-0.2" y="195" width="10" height="10" as="geometry" />
        </mxCell>
        <mxCell id="FLBWLRREEo4RobXQaIjN-482" value="" style="endArrow=classic;html=1;rounded=0;fontSize=20;edgeStyle=orthogonalEdgeStyle;" parent="1" source="FLBWLRREEo4RobXQaIjN-481" target="FLBWLRREEo4RobXQaIjN-480" edge="1">
          <mxGeometry width="50" height="50" relative="1" as="geometry">
            <mxPoint x="140" y="400" as="sourcePoint" />
            <mxPoint x="190" y="350" as="targetPoint" />
          </mxGeometry>
        </mxCell>
        <mxCell id="FLBWLRREEo4RobXQaIjN-485" value="" style="rounded=0;whiteSpace=wrap;html=1;fontSize=20;fillColor=#000000;" parent="1" vertex="1">
          <mxGeometry x="1.0000000000000113" y="-27" width="10" height="10" as="geometry" />
        </mxCell>
        <mxCell id="FLBWLRREEo4RobXQaIjN-486" value="" style="rounded=0;whiteSpace=wrap;html=1;fontSize=20;fillColor=#000000;" parent="1" vertex="1">
          <mxGeometry x="-50" y="-27" width="10" height="10" as="geometry" />
        </mxCell>
        <mxCell id="FLBWLRREEo4RobXQaIjN-487" value="" style="endArrow=classic;html=1;rounded=0;fontSize=20;edgeStyle=orthogonalEdgeStyle;" parent="1" source="FLBWLRREEo4RobXQaIjN-486" target="FLBWLRREEo4RobXQaIjN-485" edge="1">
          <mxGeometry width="50" height="50" relative="1" as="geometry">
            <mxPoint x="140" y="398" as="sourcePoint" />
            <mxPoint x="190" y="348" as="targetPoint" />
          </mxGeometry>
        </mxCell>
        <mxCell id="FLBWLRREEo4RobXQaIjN-489" value="" style="rounded=0;whiteSpace=wrap;html=1;fontSize=20;fillColor=#000000;" parent="1" vertex="1">
          <mxGeometry x="334.99999999999994" y="40" width="10" height="10" as="geometry" />
        </mxCell>
        <mxCell id="FLBWLRREEo4RobXQaIjN-490" value="" style="rounded=0;whiteSpace=wrap;html=1;fontSize=20;fillColor=#000000;" parent="1" vertex="1">
          <mxGeometry x="-50" y="-218" width="10" height="10" as="geometry" />
        </mxCell>
        <mxCell id="FLBWLRREEo4RobXQaIjN-492" value="" style="rounded=0;whiteSpace=wrap;html=1;fontSize=20;fillColor=#000000;" parent="1" vertex="1">
          <mxGeometry x="214.8" y="350" width="10" height="10" as="geometry" />
        </mxCell>
        <mxCell id="FLBWLRREEo4RobXQaIjN-493" value="" style="rounded=0;whiteSpace=wrap;html=1;fontSize=20;fillColor=#000000;" parent="1" vertex="1">
          <mxGeometry x="-50" y="390" width="10" height="10" as="geometry" />
        </mxCell>
        <mxCell id="FLBWLRREEo4RobXQaIjN-494" value="" style="endArrow=classic;html=1;rounded=0;fontSize=20;edgeStyle=orthogonalEdgeStyle;" parent="1" source="FLBWLRREEo4RobXQaIjN-493" target="FLBWLRREEo4RobXQaIjN-492" edge="1">
          <mxGeometry width="50" height="50" relative="1" as="geometry">
            <mxPoint x="140" y="400" as="sourcePoint" />
            <mxPoint x="190" y="350" as="targetPoint" />
          </mxGeometry>
        </mxCell>
        <mxCell id="FLBWLRREEo4RobXQaIjN-496" value="2 x YM2149/&lt;br&gt;JT49 Sound" style="rounded=1;whiteSpace=wrap;html=1;fontSize=20;fillColor=#DAE8FC;" parent="1" vertex="1">
          <mxGeometry x="-360" y="-120" width="130" height="60" as="geometry" />
        </mxCell>
        <mxCell id="FLBWLRREEo4RobXQaIjN-497" value="" style="rounded=0;whiteSpace=wrap;html=1;fontSize=20;fillColor=#000000;" parent="1" vertex="1">
          <mxGeometry x="-211" y="-85" width="10" height="10" as="geometry" />
        </mxCell>
        <mxCell id="FLBWLRREEo4RobXQaIjN-498" value="" style="rounded=0;whiteSpace=wrap;html=1;fontSize=20;fillColor=#000000;" parent="1" vertex="1">
          <mxGeometry x="-160" y="-85" width="10" height="10" as="geometry" />
        </mxCell>
        <mxCell id="FLBWLRREEo4RobXQaIjN-499" value="" style="endArrow=classic;html=1;rounded=0;fontSize=20;" parent="1" source="FLBWLRREEo4RobXQaIjN-498" target="FLBWLRREEo4RobXQaIjN-497" edge="1">
          <mxGeometry width="50" height="50" relative="1" as="geometry">
            <mxPoint x="140" y="350" as="sourcePoint" />
            <mxPoint x="190" y="300" as="targetPoint" />
          </mxGeometry>
        </mxCell>
        <mxCell id="FLBWLRREEo4RobXQaIjN-501" value="sdspi" style="rounded=1;whiteSpace=wrap;html=1;fontSize=20;fillColor=#DAE8FC;strokeColor=default;" parent="1" vertex="1">
          <mxGeometry x="-320.99995117187495" y="10" width="120" height="60" as="geometry" />
        </mxCell>
        <mxCell id="FLBWLRREEo4RobXQaIjN-502" value="" style="rounded=0;whiteSpace=wrap;html=1;fontSize=20;fillColor=#000000;strokeColor=default;" parent="1" vertex="1">
          <mxGeometry x="-211" y="35" width="10" height="10" as="geometry" />
        </mxCell>
        <mxCell id="FLBWLRREEo4RobXQaIjN-503" value="" style="rounded=0;whiteSpace=wrap;html=1;fontSize=20;fillColor=#000000;" parent="1" vertex="1">
          <mxGeometry x="-160" y="35" width="10" height="10" as="geometry" />
        </mxCell>
        <mxCell id="FLBWLRREEo4RobXQaIjN-504" value="" style="endArrow=classic;html=1;rounded=0;fontSize=20;" parent="1" source="FLBWLRREEo4RobXQaIjN-503" target="FLBWLRREEo4RobXQaIjN-502" edge="1">
          <mxGeometry width="50" height="50" relative="1" as="geometry">
            <mxPoint x="140" y="370" as="sourcePoint" />
            <mxPoint x="190" y="320" as="targetPoint" />
          </mxGeometry>
        </mxCell>
        <mxCell id="FLBWLRREEo4RobXQaIjN-505" value="wbuart32" style="rounded=1;whiteSpace=wrap;html=1;fontSize=20;fillColor=#DAE8FC;strokeColor=default;" parent="1" vertex="1">
          <mxGeometry x="-320.99995117187495" y="90" width="120" height="60" as="geometry" />
        </mxCell>
        <mxCell id="FLBWLRREEo4RobXQaIjN-506" value="" style="rounded=0;whiteSpace=wrap;html=1;fontSize=20;fillColor=#000000;" parent="1" vertex="1">
          <mxGeometry x="-211" y="115" width="10" height="10" as="geometry" />
        </mxCell>
        <mxCell id="FLBWLRREEo4RobXQaIjN-507" value="" style="rounded=0;whiteSpace=wrap;html=1;fontSize=20;fillColor=#000000;" parent="1" vertex="1">
          <mxGeometry x="-160" y="115" width="10" height="10" as="geometry" />
        </mxCell>
        <mxCell id="FLBWLRREEo4RobXQaIjN-508" value="" style="endArrow=classic;html=1;rounded=0;fontSize=20;" parent="1" source="FLBWLRREEo4RobXQaIjN-507" target="FLBWLRREEo4RobXQaIjN-506" edge="1">
          <mxGeometry width="50" height="50" relative="1" as="geometry">
            <mxPoint x="140" y="370" as="sourcePoint" />
            <mxPoint x="190" y="320" as="targetPoint" />
          </mxGeometry>
        </mxCell>
        <mxCell id="FLBWLRREEo4RobXQaIjN-509" value="wb_gpio" style="rounded=1;whiteSpace=wrap;html=1;fontSize=20;fillColor=#DAE8FC;strokeColor=default;" parent="1" vertex="1">
          <mxGeometry x="-321" y="195" width="120" height="60" as="geometry" />
        </mxCell>
        <mxCell id="FLBWLRREEo4RobXQaIjN-510" value="" style="rounded=0;whiteSpace=wrap;html=1;fontSize=20;fillColor=#000000;" parent="1" vertex="1">
          <mxGeometry x="-211" y="220" width="10" height="10" as="geometry" />
        </mxCell>
        <mxCell id="FLBWLRREEo4RobXQaIjN-511" value="" style="rounded=0;whiteSpace=wrap;html=1;fontSize=20;fillColor=#000000;" parent="1" vertex="1">
          <mxGeometry x="-160" y="220" width="10" height="10" as="geometry" />
        </mxCell>
        <mxCell id="FLBWLRREEo4RobXQaIjN-512" value="" style="endArrow=classic;html=1;rounded=0;fontSize=20;" parent="1" source="FLBWLRREEo4RobXQaIjN-511" target="FLBWLRREEo4RobXQaIjN-510" edge="1">
          <mxGeometry width="50" height="50" relative="1" as="geometry">
            <mxPoint x="140" y="400" as="sourcePoint" />
            <mxPoint x="190" y="350" as="targetPoint" />
          </mxGeometry>
        </mxCell>
        <mxCell id="FLBWLRREEo4RobXQaIjN-513" value="USB HID" style="rounded=1;whiteSpace=wrap;html=1;fontSize=20;fillColor=#dae8fc;strokeColor=#000000;" parent="1" vertex="1">
          <mxGeometry x="-321" y="280" width="111" height="50" as="geometry" />
        </mxCell>
        <mxCell id="FLBWLRREEo4RobXQaIjN-528" value="&lt;font style=&quot;font-size: 20px;&quot;&gt;wb_timer&lt;br style=&quot;font-size: 20px;&quot;&gt;&lt;/font&gt;" style="rounded=1;whiteSpace=wrap;html=1;fillColor=#DAE8FC;strokeColor=default;fontSize=20;" parent="1" vertex="1">
          <mxGeometry x="-320" y="360" width="119" height="60" as="geometry" />
        </mxCell>
        <mxCell id="FLBWLRREEo4RobXQaIjN-532" value="spiflash" style="rounded=1;whiteSpace=wrap;html=1;fontSize=20;align=center;fillColor=#dae8fc;strokeColor=#000000;" parent="1" vertex="1">
          <mxGeometry x="-320" y="440" width="120" height="60" as="geometry" />
        </mxCell>
        <mxCell id="FLBWLRREEo4RobXQaIjN-540" value="ICAP" style="rounded=1;whiteSpace=wrap;html=1;fontSize=20;align=center;fillColor=#dae8fc;strokeColor=#000000;" parent="1" vertex="1">
          <mxGeometry x="20.30000000000001" y="-162" width="79" height="60" as="geometry" />
        </mxCell>
        <mxCell id="FLBWLRREEo4RobXQaIjN-545" value="DFX&lt;br style=&quot;font-size: 20px;&quot;&gt;Controller&lt;br style=&quot;font-size: 20px;&quot;&gt;" style="rounded=1;whiteSpace=wrap;html=1;fontSize=20;fillColor=#dae8fc;strokeColor=#000000;" parent="1" vertex="1">
          <mxGeometry x="119.8" y="-162" width="106" height="60" as="geometry" />
        </mxCell>
        <mxCell id="FLBWLRREEo4RobXQaIjN-555" value="" style="endArrow=classic;html=1;rounded=0;fontSize=20;" parent="1" source="FLBWLRREEo4RobXQaIjN-557" target="FLBWLRREEo4RobXQaIjN-556" edge="1">
          <mxGeometry width="50" height="50" relative="1" as="geometry">
            <mxPoint x="-375" y="360" as="sourcePoint" />
            <mxPoint x="-350" y="310" as="targetPoint" />
          </mxGeometry>
        </mxCell>
        <mxCell id="FLBWLRREEo4RobXQaIjN-556" value="" style="rounded=0;whiteSpace=wrap;html=1;fontSize=20;fillColor=#000000;strokeColor=#000000;" parent="1" vertex="1">
          <mxGeometry x="-221" y="300" width="10" height="10" as="geometry" />
        </mxCell>
        <mxCell id="FLBWLRREEo4RobXQaIjN-557" value="" style="rounded=0;whiteSpace=wrap;html=1;fontSize=20;strokeColor=#000000;fillColor=#000000;" parent="1" vertex="1">
          <mxGeometry x="-160" y="300" width="10" height="10" as="geometry" />
        </mxCell>
        <mxCell id="FLBWLRREEo4RobXQaIjN-559" value="" style="endArrow=classic;html=1;rounded=0;fontSize=20;" parent="1" source="FLBWLRREEo4RobXQaIjN-561" target="FLBWLRREEo4RobXQaIjN-560" edge="1">
          <mxGeometry width="50" height="50" relative="1" as="geometry">
            <mxPoint x="-375" y="360" as="sourcePoint" />
            <mxPoint x="-350" y="310" as="targetPoint" />
          </mxGeometry>
        </mxCell>
        <mxCell id="FLBWLRREEo4RobXQaIjN-561" value="" style="rounded=0;whiteSpace=wrap;html=1;fontSize=20;strokeColor=#000000;fillColor=#000000;" parent="1" vertex="1">
          <mxGeometry x="-160" y="315" width="10" height="10" as="geometry" />
        </mxCell>
        <mxCell id="FLBWLRREEo4RobXQaIjN-562" value="" style="endArrow=classic;html=1;rounded=0;fontSize=20;" parent="1" source="FLBWLRREEo4RobXQaIjN-564" target="FLBWLRREEo4RobXQaIjN-563" edge="1">
          <mxGeometry width="50" height="50" relative="1" as="geometry">
            <mxPoint x="-375" y="360" as="sourcePoint" />
            <mxPoint x="-350" y="310" as="targetPoint" />
          </mxGeometry>
        </mxCell>
        <mxCell id="FLBWLRREEo4RobXQaIjN-563" value="" style="rounded=0;whiteSpace=wrap;html=1;fontSize=20;fillColor=#000000;strokeColor=#000000;" parent="1" vertex="1">
          <mxGeometry x="-210" y="385" width="10" height="10" as="geometry" />
        </mxCell>
        <mxCell id="FLBWLRREEo4RobXQaIjN-564" value="" style="rounded=0;whiteSpace=wrap;html=1;fontSize=20;strokeColor=#000000;fillColor=#000000;" parent="1" vertex="1">
          <mxGeometry x="-160" y="385" width="10" height="10" as="geometry" />
        </mxCell>
        <mxCell id="FLBWLRREEo4RobXQaIjN-566" value="" style="endArrow=classic;html=1;rounded=0;fontSize=20;" parent="1" source="FLBWLRREEo4RobXQaIjN-568" target="FLBWLRREEo4RobXQaIjN-567" edge="1">
          <mxGeometry width="50" height="50" relative="1" as="geometry">
            <mxPoint x="-375" y="360" as="sourcePoint" />
            <mxPoint x="-350" y="310" as="targetPoint" />
          </mxGeometry>
        </mxCell>
        <mxCell id="FLBWLRREEo4RobXQaIjN-567" value="" style="rounded=0;whiteSpace=wrap;html=1;fontSize=20;fillColor=#000000;strokeColor=#000000;" parent="1" vertex="1">
          <mxGeometry x="-210" y="465" width="10" height="10" as="geometry" />
        </mxCell>
        <mxCell id="FLBWLRREEo4RobXQaIjN-568" value="" style="rounded=0;whiteSpace=wrap;html=1;fontSize=20;strokeColor=#000000;fillColor=#000000;" parent="1" vertex="1">
          <mxGeometry x="-160" y="465" width="10" height="10" as="geometry" />
        </mxCell>
        <mxCell id="FLBWLRREEo4RobXQaIjN-572" value="" style="endArrow=classic;html=1;rounded=0;fontSize=20;edgeStyle=orthogonalEdgeStyle;" parent="1" source="FLBWLRREEo4RobXQaIjN-574" target="FLBWLRREEo4RobXQaIjN-573" edge="1">
          <mxGeometry width="50" height="50" relative="1" as="geometry">
            <mxPoint x="-375" y="-342" as="sourcePoint" />
            <mxPoint x="-350" y="-392" as="targetPoint" />
          </mxGeometry>
        </mxCell>
        <mxCell id="FLBWLRREEo4RobXQaIjN-573" value="" style="rounded=0;whiteSpace=wrap;html=1;fontSize=20;fillColor=#000000;strokeColor=#000000;" parent="1" vertex="1">
          <mxGeometry x="159.8" y="38" width="10" height="10" as="geometry" />
        </mxCell>
        <mxCell id="FLBWLRREEo4RobXQaIjN-574" value="" style="rounded=0;whiteSpace=wrap;html=1;fontSize=20;strokeColor=#000000;fillColor=#000000;" parent="1" vertex="1">
          <mxGeometry x="159.8" y="-92" width="10" height="10" as="geometry" />
        </mxCell>
        <mxCell id="FLBWLRREEo4RobXQaIjN-575" value="" style="endArrow=classic;html=1;rounded=0;fontSize=20;" parent="1" source="FLBWLRREEo4RobXQaIjN-577" target="FLBWLRREEo4RobXQaIjN-576" edge="1">
          <mxGeometry width="50" height="50" relative="1" as="geometry">
            <mxPoint x="-375" y="-322" as="sourcePoint" />
            <mxPoint x="-350" y="-372" as="targetPoint" />
          </mxGeometry>
        </mxCell>
        <mxCell id="FLBWLRREEo4RobXQaIjN-576" value="" style="rounded=0;whiteSpace=wrap;html=1;fontSize=20;fillColor=#000000;strokeColor=#000000;" parent="1" vertex="1">
          <mxGeometry x="-0.19999999999999996" y="-137" width="10" height="10" as="geometry" />
        </mxCell>
        <mxCell id="FLBWLRREEo4RobXQaIjN-577" value="" style="rounded=0;whiteSpace=wrap;html=1;fontSize=20;strokeColor=#000000;fillColor=#000000;" parent="1" vertex="1">
          <mxGeometry x="-50" y="-137" width="10" height="10" as="geometry" />
        </mxCell>
        <mxCell id="FLBWLRREEo4RobXQaIjN-578" value="256MB DDR3" style="rounded=1;whiteSpace=wrap;html=1;fontSize=20;fillColor=#DAE8FC;strokeColor=default;" parent="1" vertex="1">
          <mxGeometry x="190" y="535" width="120" height="80" as="geometry" />
        </mxCell>
        <mxCell id="FLBWLRREEo4RobXQaIjN-579" value="" style="endArrow=classic;html=1;rounded=0;fontSize=20;exitX=0.75;exitY=1;exitDx=0;exitDy=0;entryX=0.5;entryY=0;entryDx=0;entryDy=0;edgeStyle=orthogonalEdgeStyle;" parent="1" source="FLBWLRREEo4RobXQaIjN-402" target="FLBWLRREEo4RobXQaIjN-578" edge="1">
          <mxGeometry width="50" height="50" relative="1" as="geometry">
            <mxPoint x="240" y="500" as="sourcePoint" />
            <mxPoint x="290" y="450" as="targetPoint" />
          </mxGeometry>
        </mxCell>
        <mxCell id="FLBWLRREEo4RobXQaIjN-580" value="Audio DAC" style="rounded=1;whiteSpace=wrap;html=1;fontColor=#000000;strokeColor=#000000;strokeWidth=1;fillColor=#DAE8FC;fontSize=20;" parent="1" vertex="1">
          <mxGeometry x="-321" y="-230" width="80" height="60" as="geometry" />
        </mxCell>
        <mxCell id="FLBWLRREEo4RobXQaIjN-585" value="" style="endArrow=classic;html=1;rounded=0;fontSize=20;" parent="1" source="FLBWLRREEo4RobXQaIjN-496" edge="1">
          <mxGeometry width="50" height="50" relative="1" as="geometry">
            <mxPoint x="-280" y="-40" as="sourcePoint" />
            <mxPoint x="-295" y="-170" as="targetPoint" />
          </mxGeometry>
        </mxCell>
        <mxCell id="FLBWLRREEo4RobXQaIjN-586" value="microSD" style="rounded=1;whiteSpace=wrap;html=1;fontSize=20;align=center;fillColor=#DAE8FC;strokeColor=default;" parent="1" vertex="1">
          <mxGeometry x="-460" y="13" width="100" height="54" as="geometry" />
        </mxCell>
        <mxCell id="FLBWLRREEo4RobXQaIjN-587" value="" style="endArrow=classic;html=1;rounded=0;fontSize=20;strokeColor=default;" parent="1" source="FLBWLRREEo4RobXQaIjN-501" target="FLBWLRREEo4RobXQaIjN-586" edge="1">
          <mxGeometry width="50" height="50" relative="1" as="geometry">
            <mxPoint x="-130" y="270" as="sourcePoint" />
            <mxPoint x="-80" y="220" as="targetPoint" />
          </mxGeometry>
        </mxCell>
        <mxCell id="FLBWLRREEo4RobXQaIjN-588" value="16MB Flash" style="rounded=1;whiteSpace=wrap;html=1;fontSize=20;align=center;fillColor=#dae8fc;strokeColor=#6c8ebf;" parent="1" vertex="1">
          <mxGeometry x="-451" y="440" width="91" height="60" as="geometry" />
        </mxCell>
        <mxCell id="FLBWLRREEo4RobXQaIjN-589" value="" style="endArrow=classic;html=1;rounded=0;fontSize=20;" parent="1" source="FLBWLRREEo4RobXQaIjN-532" target="FLBWLRREEo4RobXQaIjN-588" edge="1">
          <mxGeometry width="50" height="50" relative="1" as="geometry">
            <mxPoint x="-160" y="270" as="sourcePoint" />
            <mxPoint x="-110" y="220" as="targetPoint" />
          </mxGeometry>
        </mxCell>
        <mxCell id="FLBWLRREEo4RobXQaIjN-602" value="&lt;b&gt;Audio PDM Out&lt;/b&gt;" style="endArrow=classic;html=1;rounded=0;fontSize=20;exitX=0.5;exitY=0;exitDx=0;exitDy=0;" parent="1" source="FLBWLRREEo4RobXQaIjN-580" edge="1">
          <mxGeometry x="1" y="20" width="50" height="50" relative="1" as="geometry">
            <mxPoint y="-380" as="sourcePoint" />
            <mxPoint x="-280" y="-270" as="targetPoint" />
            <mxPoint x="20" y="-20" as="offset" />
          </mxGeometry>
        </mxCell>
        <mxCell id="FLBWLRREEo4RobXQaIjN-603" value="VGA Out" style="endArrow=classic;html=1;rounded=0;fontSize=20;exitX=0.5;exitY=0;exitDx=0;exitDy=0;fontStyle=1" parent="1" source="FLBWLRREEo4RobXQaIjN-404" edge="1">
          <mxGeometry x="1" y="30" width="50" height="50" relative="1" as="geometry">
            <mxPoint x="105" y="70" as="sourcePoint" />
            <mxPoint x="485" y="-90" as="targetPoint" />
            <mxPoint x="30" y="-29" as="offset" />
          </mxGeometry>
        </mxCell>
        <mxCell id="FLBWLRREEo4RobXQaIjN-604" value="&lt;b&gt;Serial&lt;br&gt;Port&lt;/b&gt;" style="endArrow=classic;html=1;rounded=0;fontSize=20;exitX=0;exitY=0.5;exitDx=0;exitDy=0;" parent="1" source="FLBWLRREEo4RobXQaIjN-505" edge="1">
          <mxGeometry x="1" y="30" width="50" height="50" relative="1" as="geometry">
            <mxPoint x="-230" y="240" as="sourcePoint" />
            <mxPoint x="-380" y="120" as="targetPoint" />
            <mxPoint x="-30" y="-30" as="offset" />
          </mxGeometry>
        </mxCell>
        <mxCell id="vOdKWW2uF6KcDU7mGMfG-5" value="" style="rounded=0;whiteSpace=wrap;html=1;fontSize=20;fillColor=#000000;" parent="1" vertex="1">
          <mxGeometry x="64.9" y="38" width="10" height="10" as="geometry" />
        </mxCell>
        <mxCell id="vOdKWW2uF6KcDU7mGMfG-7" value="" style="endArrow=classic;html=1;rounded=0;fontSize=20;" parent="1" source="vOdKWW2uF6KcDU7mGMfG-9" target="vOdKWW2uF6KcDU7mGMfG-8" edge="1">
          <mxGeometry width="50" height="50" relative="1" as="geometry">
            <mxPoint x="73.8" y="140" as="sourcePoint" />
            <mxPoint x="-192.2" y="205" as="targetPoint" />
          </mxGeometry>
        </mxCell>
        <mxCell id="vOdKWW2uF6KcDU7mGMfG-8" value="" style="rounded=0;whiteSpace=wrap;html=1;fontSize=20;fillColor=#000000;" parent="1" vertex="1">
          <mxGeometry x="113" y="160" width="10" height="10" as="geometry" />
        </mxCell>
        <mxCell id="vOdKWW2uF6KcDU7mGMfG-9" value="" style="rounded=0;whiteSpace=wrap;html=1;fontSize=20;fillColor=#000000;" parent="1" vertex="1">
          <mxGeometry x="113" y="108" width="10" height="10" as="geometry" />
        </mxCell>
        <mxCell id="vOdKWW2uF6KcDU7mGMfG-10" value="" style="endArrow=classic;html=1;rounded=0;fontSize=20;strokeColor=default;jumpStyle=arc;exitX=1;exitY=0.5;exitDx=0;exitDy=0;entryX=0.5;entryY=0;entryDx=0;entryDy=0;edgeStyle=orthogonalEdgeStyle;jumpSize=11;" parent="1" source="FLBWLRREEo4RobXQaIjN-490" target="FLBWLRREEo4RobXQaIjN-489" edge="1">
          <mxGeometry width="50" height="50" relative="1" as="geometry">
            <mxPoint x="220" y="-10" as="sourcePoint" />
            <mxPoint x="270" y="-60" as="targetPoint" />
          </mxGeometry>
        </mxCell>
        <mxCell id="vOdKWW2uF6KcDU7mGMfG-11" value="&lt;b&gt;2xUSB&lt;br&gt;Port&lt;/b&gt;" style="endArrow=classic;html=1;rounded=0;fontSize=20;exitX=0;exitY=0.5;exitDx=0;exitDy=0;" parent="1" source="FLBWLRREEo4RobXQaIjN-513" edge="1">
          <mxGeometry x="1" y="30" width="50" height="50" relative="1" as="geometry">
            <mxPoint x="-310.99995117187495" y="160" as="sourcePoint" />
            <mxPoint x="-390" y="305" as="targetPoint" />
            <mxPoint x="-30" y="-30" as="offset" />
          </mxGeometry>
        </mxCell>
        <mxCell id="982IbK_s0J7Qj91UOSw4-1" value="wb_i2c" style="rounded=1;whiteSpace=wrap;html=1;fontSize=20;align=center;fillColor=#dae8fc;strokeColor=#000000;" parent="1" vertex="1">
          <mxGeometry x="-0.1999999999999993" y="440" width="120" height="60" as="geometry" />
        </mxCell>
        <mxCell id="982IbK_s0J7Qj91UOSw4-2" value="" style="endArrow=classic;html=1;rounded=0;fontSize=20;" parent="1" source="982IbK_s0J7Qj91UOSw4-4" target="982IbK_s0J7Qj91UOSw4-3" edge="1">
          <mxGeometry width="50" height="50" relative="1" as="geometry">
            <mxPoint x="-375" y="345" as="sourcePoint" />
            <mxPoint x="-350" y="295" as="targetPoint" />
          </mxGeometry>
        </mxCell>
        <mxCell id="982IbK_s0J7Qj91UOSw4-3" value="" style="rounded=0;whiteSpace=wrap;html=1;fontSize=20;fillColor=#000000;strokeColor=#000000;" parent="1" vertex="1">
          <mxGeometry x="-0.1999999999999993" y="465" width="10" height="10" as="geometry" />
        </mxCell>
        <mxCell id="982IbK_s0J7Qj91UOSw4-4" value="" style="rounded=0;whiteSpace=wrap;html=1;fontSize=20;strokeColor=#000000;fillColor=#000000;" parent="1" vertex="1">
          <mxGeometry x="-50" y="465" width="10" height="10" as="geometry" />
        </mxCell>
        <mxCell id="LwgXlr3yUNS4f10sqHcQ-1" value="RTCC" style="rounded=1;whiteSpace=wrap;html=1;fontSize=20;align=center;fillColor=#dae8fc;strokeColor=#000000;" parent="1" vertex="1">
          <mxGeometry x="1" y="555" width="120" height="60" as="geometry" />
        </mxCell>
        <mxCell id="LwgXlr3yUNS4f10sqHcQ-2" value="" style="endArrow=classic;html=1;rounded=0;" parent="1" source="982IbK_s0J7Qj91UOSw4-1" target="LwgXlr3yUNS4f10sqHcQ-1" edge="1">
          <mxGeometry width="50" height="50" relative="1" as="geometry">
            <mxPoint x="-140" y="610" as="sourcePoint" />
            <mxPoint x="-90" y="560" as="targetPoint" />
          </mxGeometry>
        </mxCell>
        <mxCell id="2F20G_uUJtbaP4h0yDHO-45" value="Shared&lt;div&gt;Bus&lt;/div&gt;" style="text;html=1;align=center;verticalAlign=middle;whiteSpace=wrap;rounded=0;fontStyle=1;fontSize=20;" parent="1" vertex="1">
          <mxGeometry x="-130" y="185" width="60" height="30" as="geometry" />
        </mxCell>
        <mxCell id="2F20G_uUJtbaP4h0yDHO-1" value="wb&lt;div&gt;staller&lt;/div&gt;" style="rounded=0;whiteSpace=wrap;html=1;fontSize=20;fontStyle=0;fillColor=#dae8fc;strokeColor=#000000;strokeWidth=1.1811;" parent="1" vertex="1">
          <mxGeometry x="718.2" y="280" width="80" height="80" as="geometry" />
        </mxCell>
        <mxCell id="2F20G_uUJtbaP4h0yDHO-2" value="128K&lt;br&gt;DPRAM&lt;br&gt;DMEM" style="rounded=1;whiteSpace=wrap;html=1;fontSize=20;fillColor=#DAE8FC;" parent="1" vertex="1">
          <mxGeometry x="571.2" y="280" width="120" height="100" as="geometry" />
        </mxCell>
        <mxCell id="2F20G_uUJtbaP4h0yDHO-3" value="" style="shape=trapezoid;perimeter=trapezoidPerimeter;whiteSpace=wrap;html=1;fixedSize=1;rotation=-180;fillColor=#dae8fc;strokeColor=#000000;strokeWidth=1.1811;" parent="1" vertex="1">
          <mxGeometry x="629.2" y="430" width="120" height="70" as="geometry" />
        </mxCell>
        <mxCell id="2F20G_uUJtbaP4h0yDHO-4" value="128K&lt;br&gt;DPRAM&lt;br&gt;CMEM" style="rounded=1;whiteSpace=wrap;html=1;fontSize=20;fillColor=#DAE8FC;" parent="1" vertex="1">
          <mxGeometry x="310" y="280" width="120" height="100" as="geometry" />
        </mxCell>
        <mxCell id="2F20G_uUJtbaP4h0yDHO-5" value="Ibex&lt;br style=&quot;font-size: 20px&quot;&gt;RV32IM" style="rounded=1;whiteSpace=wrap;html=1;fontSize=20;fillColor=#dae8fc;strokeColor=#000000;fontStyle=0;strokeWidth=1.1811;" parent="1" vertex="1">
          <mxGeometry x="496.2" y="535" width="120" height="80" as="geometry" />
        </mxCell>
        <mxCell id="2F20G_uUJtbaP4h0yDHO-6" value="" style="endArrow=classic;html=1;rounded=0;fontSize=20;entryX=0.5;entryY=0;entryDx=0;entryDy=0;exitX=0.5;exitY=0;exitDx=0;exitDy=0;edgeStyle=orthogonalEdgeStyle;" parent="1" source="2F20G_uUJtbaP4h0yDHO-9" target="2F20G_uUJtbaP4h0yDHO-20" edge="1">
          <mxGeometry width="50" height="50" relative="1" as="geometry">
            <mxPoint x="447.2" y="600" as="sourcePoint" />
            <mxPoint x="447.2" y="630" as="targetPoint" />
            <Array as="points">
              <mxPoint x="530.2" y="520" />
              <mxPoint x="425.2" y="520" />
            </Array>
          </mxGeometry>
        </mxCell>
        <mxCell id="2F20G_uUJtbaP4h0yDHO-7" value="" style="endArrow=classic;html=1;rounded=0;fontSize=20;edgeStyle=orthogonalEdgeStyle;" parent="1" source="2F20G_uUJtbaP4h0yDHO-10" target="2F20G_uUJtbaP4h0yDHO-8" edge="1">
          <mxGeometry width="50" height="50" relative="1" as="geometry">
            <mxPoint x="532.2" y="600" as="sourcePoint" />
            <mxPoint x="266.2" y="665" as="targetPoint" />
            <Array as="points">
              <mxPoint x="586.2" y="520" />
              <mxPoint x="689.2" y="520" />
            </Array>
          </mxGeometry>
        </mxCell>
        <mxCell id="2F20G_uUJtbaP4h0yDHO-8" value="" style="rounded=0;whiteSpace=wrap;html=1;fontSize=20;fillColor=#000000;" parent="1" vertex="1">
          <mxGeometry x="684" y="490" width="10" height="10" as="geometry" />
        </mxCell>
        <mxCell id="2F20G_uUJtbaP4h0yDHO-9" value="" style="rounded=0;whiteSpace=wrap;html=1;fontSize=20;fillColor=#000000;" parent="1" vertex="1">
          <mxGeometry x="525.2" y="535" width="10" height="10" as="geometry" />
        </mxCell>
        <mxCell id="2F20G_uUJtbaP4h0yDHO-10" value="" style="rounded=0;whiteSpace=wrap;html=1;fontSize=20;fillColor=#000000;" parent="1" vertex="1">
          <mxGeometry x="581.2" y="535" width="10" height="10" as="geometry" />
        </mxCell>
        <mxCell id="2F20G_uUJtbaP4h0yDHO-11" value="" style="rounded=0;whiteSpace=wrap;html=1;fontSize=20;fillColor=#000000;" parent="1" vertex="1">
          <mxGeometry x="365.2" y="370" width="10" height="10" as="geometry" />
        </mxCell>
        <mxCell id="2F20G_uUJtbaP4h0yDHO-12" value="" style="rounded=0;whiteSpace=wrap;html=1;fontSize=20;fillColor=#000000;" parent="1" vertex="1">
          <mxGeometry x="396.2" y="430" width="10" height="10" as="geometry" />
        </mxCell>
        <mxCell id="2F20G_uUJtbaP4h0yDHO-13" value="" style="endArrow=classic;html=1;rounded=0;fontSize=20;edgeStyle=orthogonalEdgeStyle;" parent="1" source="2F20G_uUJtbaP4h0yDHO-12" target="2F20G_uUJtbaP4h0yDHO-11" edge="1">
          <mxGeometry width="50" height="50" relative="1" as="geometry">
            <mxPoint x="130" y="280" as="sourcePoint" />
            <mxPoint x="180" y="230" as="targetPoint" />
            <Array as="points">
              <mxPoint x="401.2" y="400" />
              <mxPoint x="370.2" y="400" />
            </Array>
          </mxGeometry>
        </mxCell>
        <mxCell id="2F20G_uUJtbaP4h0yDHO-14" value="" style="rounded=0;whiteSpace=wrap;html=1;fontSize=20;fillColor=#000000;" parent="1" vertex="1">
          <mxGeometry x="365" y="280" width="10" height="10" as="geometry" />
        </mxCell>
        <mxCell id="2F20G_uUJtbaP4h0yDHO-15" value="" style="rounded=0;whiteSpace=wrap;html=1;fontSize=20;fillColor=#000000;" parent="1" vertex="1">
          <mxGeometry x="365" y="230" width="10" height="10" as="geometry" />
        </mxCell>
        <mxCell id="2F20G_uUJtbaP4h0yDHO-16" value="" style="endArrow=classic;html=1;rounded=0;fontSize=20;" parent="1" source="2F20G_uUJtbaP4h0yDHO-15" target="2F20G_uUJtbaP4h0yDHO-14" edge="1">
          <mxGeometry width="50" height="50" relative="1" as="geometry">
            <mxPoint x="108" y="280" as="sourcePoint" />
            <mxPoint x="158" y="230" as="targetPoint" />
          </mxGeometry>
        </mxCell>
        <mxCell id="2F20G_uUJtbaP4h0yDHO-17" value="" style="rounded=0;whiteSpace=wrap;html=1;fontSize=20;fillColor=#000000;" parent="1" vertex="1">
          <mxGeometry x="625.2" y="280" width="10" height="10" as="geometry" />
        </mxCell>
        <mxCell id="2F20G_uUJtbaP4h0yDHO-18" value="" style="rounded=0;whiteSpace=wrap;html=1;fontSize=20;fillColor=#000000;" parent="1" vertex="1">
          <mxGeometry x="625.2" y="230" width="10" height="10" as="geometry" />
        </mxCell>
        <mxCell id="2F20G_uUJtbaP4h0yDHO-19" value="" style="endArrow=classic;html=1;rounded=0;fontSize=20;" parent="1" source="2F20G_uUJtbaP4h0yDHO-18" target="2F20G_uUJtbaP4h0yDHO-17" edge="1">
          <mxGeometry width="50" height="50" relative="1" as="geometry">
            <mxPoint x="316" y="160" as="sourcePoint" />
            <mxPoint x="366" y="110" as="targetPoint" />
          </mxGeometry>
        </mxCell>
        <mxCell id="2F20G_uUJtbaP4h0yDHO-20" value="" style="shape=trapezoid;perimeter=trapezoidPerimeter;whiteSpace=wrap;html=1;fixedSize=1;rotation=-180;fillColor=#dae8fc;strokeColor=#000000;strokeWidth=1.1811;" parent="1" vertex="1">
          <mxGeometry x="365.2" y="430" width="120" height="70" as="geometry" />
        </mxCell>
        <mxCell id="2F20G_uUJtbaP4h0yDHO-21" value="" style="rounded=0;whiteSpace=wrap;html=1;fontSize=20;fillColor=#000000;" parent="1" vertex="1">
          <mxGeometry x="442.2" y="430" width="10" height="10" as="geometry" />
        </mxCell>
        <mxCell id="2F20G_uUJtbaP4h0yDHO-22" value="" style="rounded=0;whiteSpace=wrap;html=1;fontSize=20;fillColor=#000000;" parent="1" vertex="1">
          <mxGeometry x="396.2" y="430" width="10" height="10" as="geometry" />
        </mxCell>
        <mxCell id="2F20G_uUJtbaP4h0yDHO-23" value="" style="rounded=0;whiteSpace=wrap;html=1;fontSize=20;fillColor=#000000;" parent="1" vertex="1">
          <mxGeometry x="420" y="490" width="10" height="10" as="geometry" />
        </mxCell>
        <mxCell id="2F20G_uUJtbaP4h0yDHO-24" value="" style="rounded=0;whiteSpace=wrap;html=1;fontSize=20;fillColor=#000000;" parent="1" vertex="1">
          <mxGeometry x="660.2" y="430" width="10" height="10" as="geometry" />
        </mxCell>
        <mxCell id="2F20G_uUJtbaP4h0yDHO-25" value="" style="rounded=0;whiteSpace=wrap;html=1;fontSize=20;fillColor=#000000;" parent="1" vertex="1">
          <mxGeometry x="706.2" y="430" width="10" height="10" as="geometry" />
        </mxCell>
        <mxCell id="2F20G_uUJtbaP4h0yDHO-26" value="" style="rounded=0;whiteSpace=wrap;html=1;fontSize=20;fillColor=#000000;" parent="1" vertex="1">
          <mxGeometry x="660.2" y="430" width="10" height="10" as="geometry" />
        </mxCell>
        <mxCell id="2F20G_uUJtbaP4h0yDHO-27" value="" style="rounded=0;whiteSpace=wrap;html=1;fontSize=20;fillColor=#000000;" parent="1" vertex="1">
          <mxGeometry x="753.2" y="350" width="10" height="10" as="geometry" />
        </mxCell>
        <mxCell id="2F20G_uUJtbaP4h0yDHO-28" value="" style="endArrow=classic;html=1;rounded=0;exitX=0.5;exitY=1;exitDx=0;exitDy=0;entryX=0.5;entryY=1;entryDx=0;entryDy=0;edgeStyle=orthogonalEdgeStyle;" parent="1" source="2F20G_uUJtbaP4h0yDHO-25" target="2F20G_uUJtbaP4h0yDHO-1" edge="1">
          <mxGeometry width="50" height="50" relative="1" as="geometry">
            <mxPoint x="782.2" y="430" as="sourcePoint" />
            <mxPoint x="713.2" y="240" as="targetPoint" />
            <Array as="points">
              <mxPoint x="711.2" y="400" />
              <mxPoint x="758.2" y="400" />
            </Array>
          </mxGeometry>
        </mxCell>
        <mxCell id="2F20G_uUJtbaP4h0yDHO-29" value="" style="rounded=0;whiteSpace=wrap;html=1;fontSize=20;fillColor=#000000;" parent="1" vertex="1">
          <mxGeometry x="626.2" y="370" width="10" height="10" as="geometry" />
        </mxCell>
        <mxCell id="2F20G_uUJtbaP4h0yDHO-30" value="" style="endArrow=classic;html=1;rounded=0;entryX=0.5;entryY=1;entryDx=0;entryDy=0;exitX=0.692;exitY=1;exitDx=0;exitDy=0;exitPerimeter=0;edgeStyle=orthogonalEdgeStyle;" parent="1" source="2F20G_uUJtbaP4h0yDHO-3" target="2F20G_uUJtbaP4h0yDHO-2" edge="1">
          <mxGeometry width="50" height="50" relative="1" as="geometry">
            <mxPoint x="802.2" y="480" as="sourcePoint" />
            <mxPoint x="852.2" y="430" as="targetPoint" />
          </mxGeometry>
        </mxCell>
        <mxCell id="2F20G_uUJtbaP4h0yDHO-31" value="1-&amp;gt;2 MUX" style="text;html=1;align=center;verticalAlign=middle;whiteSpace=wrap;rounded=0;fontStyle=0;fontSize=20;" parent="1" vertex="1">
          <mxGeometry x="396.2" y="448" width="60" height="30" as="geometry" />
        </mxCell>
        <mxCell id="2F20G_uUJtbaP4h0yDHO-32" value="1-&amp;gt;2 MUX" style="text;html=1;align=center;verticalAlign=middle;whiteSpace=wrap;rounded=0;fontStyle=0;fontSize=20;" parent="1" vertex="1">
          <mxGeometry x="658.2" y="447" width="60" height="30" as="geometry" />
        </mxCell>
        <mxCell id="2F20G_uUJtbaP4h0yDHO-33" value="" style="endArrow=classic;html=1;rounded=0;exitX=0.5;exitY=0;exitDx=0;exitDy=0;entryX=0.5;entryY=1;entryDx=0;entryDy=0;edgeStyle=orthogonalEdgeStyle;" parent="1" source="2F20G_uUJtbaP4h0yDHO-21" target="2F20G_uUJtbaP4h0yDHO-35" edge="1">
          <mxGeometry width="50" height="50" relative="1" as="geometry">
            <mxPoint x="725.2" y="310" as="sourcePoint" />
            <mxPoint x="775.2" y="260" as="targetPoint" />
          </mxGeometry>
        </mxCell>
        <mxCell id="2F20G_uUJtbaP4h0yDHO-34" value="wb&lt;div&gt;staller&lt;/div&gt;" style="rounded=0;whiteSpace=wrap;html=1;fontSize=20;fontStyle=0;fillColor=#dae8fc;strokeColor=#000000;strokeWidth=1.1811;" parent="1" vertex="1">
          <mxGeometry x="456.2" y="280" width="80" height="80" as="geometry" />
        </mxCell>
        <mxCell id="2F20G_uUJtbaP4h0yDHO-35" value="" style="rounded=0;whiteSpace=wrap;html=1;fontSize=20;fillColor=#000000;" parent="1" vertex="1">
          <mxGeometry x="491.2" y="350" width="10" height="10" as="geometry" />
        </mxCell>
        <mxCell id="2F20G_uUJtbaP4h0yDHO-36" value="" style="rounded=0;whiteSpace=wrap;html=1;fontSize=20;fillColor=#000000;" parent="1" vertex="1">
          <mxGeometry x="491.2" y="280" width="10" height="10" as="geometry" />
        </mxCell>
        <mxCell id="2F20G_uUJtbaP4h0yDHO-37" value="" style="rounded=0;whiteSpace=wrap;html=1;fontSize=20;fillColor=#000000;" parent="1" vertex="1">
          <mxGeometry x="491.2" y="230" width="10" height="10" as="geometry" />
        </mxCell>
        <mxCell id="2F20G_uUJtbaP4h0yDHO-38" value="" style="endArrow=classic;html=1;rounded=0;entryX=0.5;entryY=1;entryDx=0;entryDy=0;exitX=0.5;exitY=0;exitDx=0;exitDy=0;" parent="1" source="2F20G_uUJtbaP4h0yDHO-36" target="2F20G_uUJtbaP4h0yDHO-37" edge="1">
          <mxGeometry width="50" height="50" relative="1" as="geometry">
            <mxPoint x="501.2" y="280" as="sourcePoint" />
            <mxPoint x="551.2" y="230" as="targetPoint" />
          </mxGeometry>
        </mxCell>
        <mxCell id="2F20G_uUJtbaP4h0yDHO-39" value="" style="rounded=0;whiteSpace=wrap;html=1;fontSize=20;fillColor=#000000;" parent="1" vertex="1">
          <mxGeometry x="753.2" y="280" width="10" height="10" as="geometry" />
        </mxCell>
        <mxCell id="2F20G_uUJtbaP4h0yDHO-40" value="" style="rounded=0;whiteSpace=wrap;html=1;fontSize=20;fillColor=#000000;" parent="1" vertex="1">
          <mxGeometry x="753.2" y="230" width="10" height="10" as="geometry" />
        </mxCell>
        <mxCell id="2F20G_uUJtbaP4h0yDHO-41" value="" style="endArrow=classic;html=1;rounded=0;entryX=0.942;entryY=0.988;entryDx=0;entryDy=0;entryPerimeter=0;" parent="1" source="2F20G_uUJtbaP4h0yDHO-1" edge="1">
          <mxGeometry width="50" height="50" relative="1" as="geometry">
            <mxPoint x="701.2" y="300" as="sourcePoint" />
            <mxPoint x="758.8484000000001" y="239.03999999999996" as="targetPoint" />
          </mxGeometry>
        </mxCell>
      </root>
    </mxGraphModel>
  </diagram>
</mxfile>
